{
  "asset": {
    "version": "2.0",
    "generator": "THREE.GLTFExporter r174"
  },
  "scenes": [
    {
      "name": "Scene",
      "nodes": [
        7
      ]
    }
  ],
  "scene": 0,
  "nodes": [
    {
      "matrix": [
        0.0010000000474974513,
        0,
        0,
        0,
        0,
        0.0010000000474974513,
        0,
        0,
        0,
        0,
        0.0010000000474974513,
        0,
        0.23197078704833984,
        -0.19698424637317657,
        0.37837550044059753,
        1
      ],
      "name": "node_id39",
      "extras": {
        "name": "node_id39"
      }
    },
    {
      "matrix": [
        0.0010000000474974513,
        0,
        0,
        0,
        0,
        0.0010000000474974513,
        0,
        0,
        0,
        0,
        0.0010000000474974513,
        0,
        0.21453702449798584,
        -0.15406084060668945,
        0.6610581278800964,
        1
      ],
      "name": "node_id49",
      "extras": {
        "name": "node_id49"
      }
    },
    {
      "matrix": [
        1,
        0,
        0,
        0,
        0,
        1,
        0,
        0,
        0,
        0,
        1,
        0,
        -53.809139251708984,
        -11.821040153503418,
        7.5,
        1
      ],
      "name": "mesh_id60",
      "mesh": 0
    },
    {
      "matrix": [
        0.9999999999999716,
        -2.3841857910154535e-7,
        1.2789774664692666e-13,
        0,
        2.3841857910157965e-7,
        0.9999999999998277,
        -5.364420303521834e-7,
        0,
        0,
        5.364420303521987e-7,
        0.9999999999998561,
        0,
        1.0486292839050293,
        -137.060302734375,
        607.7848510742188,
        1
      ],
      "name": "node_id55",
      "extras": {
        "name": "node_id55"
      },
      "children": [
        2
      ]
    },
    {
      "matrix": [
        -471.93412274975464,
        -3.107188499280182e-20,
        7.994879037539584e-19,
        0,
        -7.994882577880508e-19,
        -0.00006340857280172363,
        -471.9343923074541,
        0,
        3.1072101233099165e-20,
        -471.9343923074541,
        0.0001752780094190715,
        0,
        0.0002347355184610933,
        0,
        471.9346923828125,
        1
      ],
      "name": "node_id6",
      "extras": {
        "name": "node_id6"
      },
      "mesh": 1
    },
    {
      "matrix": [
        0.0010000000474974513,
        5.130696055930353e-19,
        1.3170888759800088e-12,
        0,
        -1.3170884159921537e-12,
        3.71403183603252e-10,
        0.000999999748316582,
        0,
        -4.204181914130667e-20,
        -0.000999999748316582,
        3.71403183603252e-10,
        0,
        0,
        0.4719345271587372,
        0.4719345271587372,
        1
      ],
      "name": "node_id65",
      "extras": {
        "name": "node_id65"
      },
      "children": [
        3,
        4
      ]
    },
    {
      "name": "root",
      "extras": {
        "name": "root"
      },
      "children": [
        0,
        1,
        5
      ]
    },
    {
      "name": "mouse2.glb",
      "children": [
        6
      ]
    }
  ],
  "bufferViews": [
    {
      "buffer": 0,
      "byteOffset": 0,
      "byteLength": 12312,
      "target": 34962,
      "byteStride": 12
    },
    {
      "buffer": 0,
      "byteOffset": 12312,
      "byteLength": 12312,
      "target": 34962,
      "byteStride": 12
    },
    {
      "buffer": 0,
      "byteOffset": 24624,
      "byteLength": 5448,
      "target": 34963
    },
    {
      "buffer": 0,
      "byteOffset": 30072,
      "byteLength": 236424,
      "target": 34962,
      "byteStride": 12
    },
    {
      "buffer": 0,
      "byteOffset": 266496,
      "byteLength": 236424,
      "target": 34962,
      "byteStride": 12
    },
    {
      "buffer": 0,
      "byteOffset": 502920,
      "byteLength": 157616,
      "target": 34962,
      "byteStride": 8
    },
    {
      "buffer": 0,
      "byteOffset": 660536,
      "byteLength": 315232,
      "target": 34962,
      "byteStride": 16
    },
    {
      "buffer": 0,
      "byteOffset": 975768,
      "byteLength": 210500,
      "target": 34963
    }
  ],
  "buffers": [
    {
      "byteLength": 1186268,
      "uri": "data:application/octet-stream;base64,"
    }
  ],
  "accessors": [
    {
      "bufferView": 0,
      "componentType": 5126,
      "count": 1026,
      "max": [
        106.06749725341797,
        23.642080307006836,
        0
      ],
      "min": [
        1.5507800579071045,
        0,
        -15
      ],
      "type": "VEC3"
    },
    {
      "bufferView": 1,
      "componentType": 5126,
      "count": 1026,
      "max": [
        1,
        1,
        1
      ],
      "min": [
        -1,
        -1,
        -1
      ],
      "type": "VEC3"
    },
    {
      "bufferView": 2,
      "componentType": 5123,
      "count": 2724,
      "max": [
        1025
      ],
      "min": [
        0
      ],
      "type": "SCALAR"
    },
    {
      "bufferView": 3,
      "componentType": 5126,
      "count": 19702,
      "max": [
        0.5424479246139526,
        0.3037499487400055,
        1
      ],
      "min": [
        -0.5424479246139526,
        -0.3037499487400055,
        -0.9999999403953552
      ],
      "type": "VEC3"
    },
    {
      "bufferView": 4,
      "componentType": 5126,
      "count": 19702,
      "max": [
        1,
        1,
        1
      ],
      "min": [
        -1,
        -1,
        -1
      ],
      "type": "VEC3"
    },
    {
      "bufferView": 5,
      "componentType": 5126,
      "count": 19702,
      "max": [
        0.653944730758667,
        0.4113631546497345
      ],
      "min": [
        0.0005241640610620379,
        0.0004937052726745605
      ],
      "type": "VEC2"
    },
    {
      "bufferView": 6,
      "componentType": 5126,
      "count": 19702,
      "max": [
        1,
        1,
        1,
        1
      ],
      "min": [
        1,
        1,
        1,
        1
      ],
      "type": "VEC4"
    },
    {
      "bufferView": 7,
      "componentType": 5123,
      "count": 105249,
      "max": [
        19701
      ],
      "min": [
        0
      ],
      "type": "SCALAR"
    }
  ],
  "materials": [
    {
      "pbrMetallicRoughness": {
        "metallicFactor": 1,
        "roughnessFactor": 1,
        "metallicRoughnessTexture": {
          "index": 0,
          "texCoord": 0
        },
        "baseColorTexture": {
          "index": 1,
          "texCoord": 0
        }
      },
      "doubleSided": true,
      "name": "57",
      "extras": {
        "MSFT_sRGBFactors": false,
        "gltfExtensions": {
          "KHR_materials_pbrSpecularGlossiness": {
            "diffuseTexture": {
              "index": 0
            },
            "specularGlossinessTexture": {
              "index": 1
            }
          }
        }
      }
    },
    {
      "pbrMetallicRoughness": {
        "metallicFactor": 1,
        "roughnessFactor": 1,
        "metallicRoughnessTexture": {
          "index": 2,
          "texCoord": 0
        },
        "baseColorTexture": {
          "index": 3,
          "texCoord": 0
        }
      },
      "alphaMode": "MASK",
      "alphaCutoff": 0.5,
      "doubleSided": true,
      "name": "59",
      "extras": {
        "MSFT_sRGBFactors": false,
        "gltfExtensions": {
          "KHR_materials_pbrSpecularGlossiness": {
            "diffuseTexture": {
              "index": 4
            },
            "specularGlossinessTexture": {
              "index": 5
            }
          }
        }
      }
    }
  ],
  "textures": [
    {
      "sampler": 0,
      "source": 0,
      "name": "57_mr"
    },
    {
      "sampler": 1,
      "source": 1,
      "name": "57_bc"
    },
    {
      "sampler": 2,
      "source": 2,
      "name": "59_mr"
    },
    {
      "sampler": 3,
      "source": 3,
      "name": "59_bc"
    }
  ],
  "samplers": [
    {
      "magFilter": 9729,
      "minFilter": 9985,
      "wrapS": 10497,
      "wrapT": 10497
    },
    {
      "magFilter": 9729,
      "minFilter": 9985,
      "wrapS": 10497,
      "wrapT": 10497
    },
    {
      "magFilter": 9729,
      "minFilter": 9985,
      "wrapS": 10497,
      "wrapT": 10497
    },
    {
      "magFilter": 9729,
      "minFilter": 9987,
      "wrapS": 10497,
      "wrapT": 10497
    }
  ],
  "images": [
    {
      "mimeType": "image/png",
      "uri": "data:image/png;base64,"
    },
    {
      "mimeType": "image/png",
      "uri": "data:image/png;base64,"
    },
    {
      "mimeType": "image/png",
      "uri": "data:image/png;base64,"
    },
    {
      "mimeType": "image/png",
      "uri": "data:image/png;base64,"
    }
  ],
  "meshes": [
    {
      "primitives": [
        {
          "mode": 4,
          "attributes": {
            "POSITION": 0,
            "NORMAL": 1
          },
          "indices": 2,
          "material": 0
        }
      ]
    },
    {
      "primitives": [
        {
          "mode": 4,
          "attributes": {
            "POSITION": 3,
            "NORMAL": 4,
            "TEXCOORD_0": 5,
            "COLOR_0": 6
          },
          "indices": 7,
          "material": 1
        }
      ]
    }
  ]
}